<?xml version="1.0" standalone="no"?>
<!DOCTYPE svg PUBLIC "-//W3C//DTD SVG 20010904//EN"
 "http://www.w3.org/TR/2001/REC-SVG-20010904/DTD/svg10.dtd">
<svg version="1.0" xmlns="http://www.w3.org/2000/svg"
 width="100px" height="85px" viewBox="0 0 250.34 290.88"
 preserveAspectRatio="xMidYMid meet">

<g transform="translate(0.000000,147.000000) scale(0.100000,-0.100000)"
fill="#000000" stroke="none">
<path d="M357 1203 c-6 -10 -127 -399 -127 -408 0 -3 14 -5 32 -3 29 3 34 8
47 51 l15 47 66 0 66 0 15 -47 c13 -43 18 -48 47 -51 22 -2 32 1 31 10 0 7
-28 101 -62 208 l-63 195 -31 3 c-17 2 -33 -1 -36 -5z m47 -135 c3 -13 12 -44
20 -70 l15 -48 -48 0 -49 0 21 70 c21 74 31 85 41 48z"/>
<path d="M950 1000 l0 -210 125 0 125 0 0 55 c0 54 0 55 -30 55 -25 0 -30 -4
-30 -25 0 -24 -2 -25 -65 -25 l-65 0 0 180 0 180 -30 0 -30 0 0 -210z"/>
<path d="M1620 1000 l0 -210 130 0 130 0 0 30 0 30 -100 0 -100 0 0 60 0 60
70 0 70 0 0 30 c0 29 0 29 -67 32 l-68 3 -3 58 -3 57 101 0 100 0 0 30 0 30
-130 0 -130 0 0 -210z"/>
<path d="M2250 1205 c0 -3 23 -50 50 -105 l50 -100 -56 -105 -56 -105 36 0
c35 0 37 2 73 75 21 41 40 75 43 75 3 0 22 -34 43 -75 35 -72 38 -75 72 -75
l35 0 -52 105 -52 104 43 93 c23 51 45 99 48 106 4 8 -6 12 -29 12 -34 0 -36
-3 -70 -77 l-35 -78 -39 78 c-36 73 -40 77 -71 77 -18 0 -33 -2 -33 -5z"/>
<path d="M2930 1145 c0 -63 1 -65 25 -65 24 0 25 2 25 65 0 63 -1 65 -25 65
-24 0 -25 -2 -25 -65z"/>
<path d="M2804 556 c-33 -14 -44 -33 -44 -70 0 -36 33 -57 99 -65 69 -8 79
-14 61 -36 -16 -19 -70 -19 -115 -1 -32 14 -36 13 -45 -4 -5 -10 -10 -21 -10
-25 0 -14 74 -35 125 -35 46 0 60 4 80 25 56 55 15 125 -74 125 -25 0 -53 5
-61 10 -13 9 -12 12 5 26 19 15 53 14 111 -2 16 -4 23 0 27 16 4 16 -1 23 -21
31 -46 18 -106 20 -138 5z"/>
<path d="M1840 440 l0 -120 24 0 c23 0 25 5 28 48 3 45 4 47 36 50 24 2 32 8
32 23 0 15 -7 19 -36 19 -33 0 -35 2 -32 28 3 25 7 27 56 30 44 3 52 6 52 23
0 17 -7 19 -80 19 l-80 0 0 -120z"/>
<path d="M2060 440 l0 -120 25 0 25 0 0 120 0 120 -25 0 -25 0 0 -120z"/>
<path d="M2180 440 l0 -120 75 0 c73 0 75 1 75 25 0 23 -3 25 -50 25 l-50 0 0
95 c0 95 0 95 -25 95 l-25 0 0 -120z"/>
<path d="M2417 513 c-4 -27 -9 -81 -13 -120 l-7 -73 26 0 c25 0 26 3 33 72 l7
72 26 -69 c25 -64 29 -70 58 -73 31 -3 32 -2 55 69 21 66 24 70 29 43 4 -16 7
-48 8 -71 1 -41 2 -43 32 -43 24 0 29 4 25 18 -2 9 -7 49 -11 87 -12 132 -13
136 -48 133 -28 -3 -32 -8 -56 -80 -14 -42 -29 -79 -32 -82 -3 -4 -19 32 -35
79 -28 82 -30 85 -60 85 -30 0 -32 -2 -37 -47z"/>
<path d="M230 440 c0 -20 7 -20 770 -20 763 0 770 0 770 20 0 20 -7 20 -770
20 -763 0 -770 0 -770 -20z"/>
</g>
</svg>
